<?xml version="1.0" encoding="UTF-8"?>
<svg width="700pt" height="700pt" version="1.1" viewBox="0 0 700 700" xmlns="http://www.w3.org/2000/svg" xmlns:xlink="http://www.w3.org/1999/xlink">
 <defs>
  <symbol id="u" overflow="visible">
   <path d="m14.656-0.875c-0.76172 0.39844-1.5547 0.69531-2.375 0.89062-0.8125 0.19531-1.6641 0.29688-2.5469 0.29688-2.6562 0-4.7617-0.73828-6.3125-2.2188-1.5547-1.4883-2.3281-3.5039-2.3281-6.0469 0-2.5508 0.77344-4.5664 2.3281-6.0469 1.5508-1.4883 3.6562-2.2344 6.3125-2.2344 0.88281 0 1.7344 0.10156 2.5469 0.29688 0.82031 0.19922 1.6133 0.49609 2.375 0.89062v3.2969c-0.76172-0.51953-1.5117-0.89844-2.25-1.1406-0.74219-0.23828-1.5234-0.35938-2.3438-0.35938-1.4688 0-2.625 0.46875-3.4688 1.4062-0.83594 0.9375-1.25 2.2344-1.25 3.8906 0 1.6484 0.41406 2.9375 1.25 3.875 0.84375 0.9375 2 1.4062 3.4688 1.4062 0.82031 0 1.6016-0.11719 2.3438-0.35938 0.73828-0.23828 1.4883-0.61719 2.25-1.1406z"/>
  </symbol>
  <symbol id="d" overflow="visible">
   <path d="m10.719-8.7031c-0.33594-0.15625-0.66797-0.26953-1-0.34375-0.32422-0.082031-0.65625-0.125-1-0.125-0.98047 0-1.7344 0.32031-2.2656 0.95312-0.53125 0.625-0.79688 1.5273-0.79688 2.7031v5.5156h-3.8125v-11.969h3.8125v1.9688c0.48828-0.78125 1.0508-1.3477 1.6875-1.7031 0.64453-0.36328 1.4102-0.54688 2.2969-0.54688 0.13281 0 0.27344 0.007812 0.42188 0.015625 0.14453 0.011719 0.36328 0.03125 0.65625 0.0625z"/>
  </symbol>
  <symbol id="a" overflow="visible">
   <path d="m13.781-6.0156v1.0938h-8.9375c0.09375 0.89844 0.41406 1.5703 0.96875 2.0156 0.55078 0.44922 1.3281 0.67188 2.3281 0.67188 0.80078 0 1.625-0.11719 2.4688-0.35938 0.84375-0.23828 1.7109-0.59766 2.6094-1.0781v2.9531c-0.90625 0.33594-1.8125 0.58984-2.7188 0.76562s-1.8125 0.26562-2.7188 0.26562c-2.1562 0-3.8398-0.54688-5.0469-1.6406-1.1992-1.1016-1.7969-2.6484-1.7969-4.6406 0-1.9453 0.58594-3.4766 1.7656-4.5938 1.1758-1.125 2.8008-1.6875 4.875-1.6875 1.875 0 3.375 0.57031 4.5 1.7031 1.1328 1.125 1.7031 2.6367 1.7031 4.5312zm-3.9375-1.2656c0-0.72656-0.21484-1.3125-0.64062-1.75-0.41797-0.44531-0.96875-0.67188-1.6562-0.67188-0.74219 0-1.3438 0.21094-1.8125 0.625-0.46094 0.41797-0.74609 1.0156-0.85938 1.7969z"/>
  </symbol>
  <symbol id="g" overflow="visible">
   <path d="m7.2031-5.3906c-0.80469 0-1.4062 0.13672-1.8125 0.40625-0.39844 0.27344-0.59375 0.67188-0.59375 1.2031 0 0.48047 0.16016 0.85938 0.48438 1.1406 0.32031 0.27344 0.77344 0.40625 1.3594 0.40625 0.71875 0 1.3203-0.25391 1.8125-0.76562 0.48828-0.51953 0.73438-1.1719 0.73438-1.9531v-0.4375zm5.8438-1.4375v6.8281h-3.8594v-1.7656c-0.51172 0.71875-1.0898 1.2461-1.7344 1.5781-0.63672 0.33203-1.418 0.5-2.3438 0.5-1.2422 0-2.2461-0.35938-3.0156-1.0781-0.77344-0.72656-1.1562-1.6719-1.1562-2.8281 0-1.3945 0.47656-2.4219 1.4375-3.0781 0.96875-0.65625 2.4883-0.98438 4.5625-0.98438h2.25v-0.29688c0-0.60156-0.24219-1.0469-0.71875-1.3281-0.48047-0.28125-1.2266-0.42188-2.2344-0.42188-0.8125 0-1.5742 0.085937-2.2812 0.25-0.71094 0.15625-1.3672 0.40234-1.9688 0.73438v-2.9219c0.82031-0.19531 1.6445-0.34766 2.4688-0.45312 0.82031-0.10156 1.6484-0.15625 2.4844-0.15625 2.1562 0 3.7109 0.42969 4.6719 1.2812 0.95703 0.84375 1.4375 2.2266 1.4375 4.1406z"/>
  </symbol>
  <symbol id="b" overflow="visible">
   <path d="m6.0156-15.359v3.3906h3.9375v2.7344h-3.9375v5.0781c0 0.55469 0.10938 0.92969 0.32812 1.125 0.21875 0.19922 0.65625 0.29688 1.3125 0.29688h1.9688v2.7344h-3.2812c-1.5117 0-2.5859-0.3125-3.2188-0.9375-0.625-0.63281-0.9375-1.707-0.9375-3.2188v-5.0781h-1.9062v-2.7344h1.9062v-3.3906z"/>
  </symbol>
  <symbol id="i" overflow="visible">
   <path d="m9.9688-10.219v-6.4062h3.8594v16.625h-3.8594v-1.7344c-0.52344 0.71094-1.1016 1.2305-1.7344 1.5625-0.63672 0.32031-1.3711 0.48438-2.2031 0.48438-1.4688 0-2.6797-0.58203-3.625-1.75-0.94922-1.1758-1.4219-2.6875-1.4219-4.5312s0.47266-3.3477 1.4219-4.5156c0.94531-1.1758 2.1562-1.7656 3.625-1.7656 0.83203 0 1.5664 0.16797 2.2031 0.5 0.63281 0.32422 1.2109 0.83594 1.7344 1.5312zm-2.5156 7.75c0.82031 0 1.4453-0.29688 1.875-0.89062 0.42578-0.60156 0.64062-1.4727 0.64062-2.6094 0-1.1445-0.21484-2.0156-0.64062-2.6094-0.42969-0.59375-1.0547-0.89062-1.875-0.89062-0.8125 0-1.4336 0.29688-1.8594 0.89062-0.42969 0.59375-0.64062 1.4648-0.64062 2.6094 0 1.1367 0.21094 2.0078 0.64062 2.6094 0.42578 0.59375 1.0469 0.89062 1.8594 0.89062z"/>
  </symbol>
  <symbol id="c" overflow="visible">
   <path d="m8.2031-2.4688c0.82031 0 1.4453-0.29688 1.875-0.89062 0.42578-0.60156 0.64062-1.4727 0.64062-2.6094 0-1.1445-0.21484-2.0156-0.64062-2.6094-0.42969-0.59375-1.0547-0.89062-1.875-0.89062-0.82422 0-1.4531 0.30469-1.8906 0.90625-0.4375 0.59375-0.65625 1.4609-0.65625 2.5938 0 1.1367 0.21875 2.0078 0.65625 2.6094 0.4375 0.59375 1.0664 0.89062 1.8906 0.89062zm-2.5469-7.75c0.53125-0.69531 1.1133-1.207 1.75-1.5312 0.64453-0.33203 1.3828-0.5 2.2188-0.5 1.4688 0 2.6758 0.58984 3.625 1.7656 0.94531 1.168 1.4219 2.6719 1.4219 4.5156s-0.47656 3.3555-1.4219 4.5312c-0.94922 1.168-2.1562 1.75-3.625 1.75-0.83594 0-1.5742-0.16797-2.2188-0.5-0.63672-0.33203-1.2188-0.84766-1.75-1.5469v1.7344h-3.8125v-16.625h3.8125z"/>
  </symbol>
  <symbol id="f" overflow="visible">
   <path d="m0.26562-11.969h3.8281l3.2188 8.125 2.7344-8.125h3.8125l-5.0312 13.094c-0.5 1.332-1.0898 2.2656-1.7656 2.7969-0.66797 0.53125-1.5547 0.79688-2.6562 0.79688h-2.2188v-2.5h1.2031c0.64453 0 1.1133-0.10547 1.4062-0.3125 0.30078-0.21094 0.53125-0.57812 0.6875-1.1094l0.10938-0.34375z"/>
  </symbol>
  <symbol id="h" overflow="visible">
   <path d="m2.0156-15.953h4.1094v6.0781h6.0625v-6.0781h4.1094v15.953h-4.1094v-6.7656h-6.0625v6.7656h-4.1094z"/>
  </symbol>
  <symbol id="t" overflow="visible">
   <path d="m7.8438-8.875c0.86328 0 1.4844-0.16016 1.8594-0.48438 0.375-0.32031 0.5625-0.84766 0.5625-1.5781 0-0.72656-0.1875-1.25-0.5625-1.5625s-0.99609-0.46875-1.8594-0.46875h-1.7188v4.0938zm-1.7188 2.8438v6.0312h-4.1094v-15.953h6.2656c2.1016 0 3.6445 0.35547 4.625 1.0625 0.97656 0.71094 1.4688 1.8242 1.4688 3.3438 0 1.0547-0.25781 1.918-0.76562 2.5938-0.51172 0.67969-1.2773 1.1797-2.2969 1.5 0.5625 0.125 1.0625 0.41797 1.5 0.875 0.44531 0.44922 0.89844 1.1328 1.3594 2.0469l2.2344 4.5312h-4.375l-1.9531-3.9688c-0.38672-0.78906-0.78125-1.332-1.1875-1.625-0.40625-0.28906-0.94531-0.4375-1.6094-0.4375z"/>
  </symbol>
  <symbol id="s" overflow="visible">
   <path d="m1.8438-11.969h3.8125v11.969h-3.8125zm0-4.6562h3.8125v3.125h-3.8125z"/>
  </symbol>
  <symbol id="r" overflow="visible">
   <path d="m9.7031-16.625v2.5156h-2.1094c-0.54297 0-0.92188 0.10156-1.1406 0.29688-0.21094 0.19922-0.3125 0.53906-0.3125 1.0156v0.82812h3.2656v2.7344h-3.2656v9.2344h-3.8281v-9.2344h-1.8906v-2.7344h1.8906v-0.82812c0-1.3008 0.36328-2.2656 1.0938-2.8906 0.72656-0.625 1.8516-0.9375 3.375-0.9375z"/>
  </symbol>
  <symbol id="e" overflow="visible">
   <path d="m7.5312-9.5156c-0.84375 0-1.4922 0.30859-1.9375 0.92188-0.44922 0.60547-0.67188 1.4805-0.67188 2.625 0 1.1484 0.22266 2.0273 0.67188 2.6406 0.44531 0.60547 1.0938 0.90625 1.9375 0.90625 0.83203 0 1.4688-0.30078 1.9062-0.90625 0.44531-0.61328 0.67188-1.4922 0.67188-2.6406 0-1.1445-0.22656-2.0195-0.67188-2.625-0.4375-0.61328-1.0742-0.92188-1.9062-0.92188zm0-2.7344c2.0508 0 3.6562 0.55859 4.8125 1.6719 1.1641 1.1055 1.75 2.6406 1.75 4.6094s-0.58594 3.5117-1.75 4.625c-1.1562 1.1055-2.7617 1.6562-4.8125 1.6562-2.0625 0-3.6797-0.55078-4.8438-1.6562-1.168-1.1133-1.75-2.6562-1.75-4.625s0.58203-3.5039 1.75-4.6094c1.1641-1.1133 2.7812-1.6719 4.8438-1.6719z"/>
  </symbol>
  <symbol id="q" overflow="visible">
   <path d="m12.922-9.9688c0.48828-0.75 1.0625-1.3164 1.7188-1.7031 0.66406-0.38281 1.3984-0.57812 2.2031-0.57812 1.375 0 2.4219 0.42969 3.1406 1.2812 0.71875 0.84375 1.0781 2.0742 1.0781 3.6875v7.2812h-3.8438v-6.2344c0.007812-0.09375 0.015625-0.1875 0.015625-0.28125v-0.4375c0-0.84375-0.125-1.457-0.375-1.8438-0.25-0.38281-0.65234-0.57812-1.2031-0.57812-0.73047 0-1.293 0.30469-1.6875 0.90625-0.38672 0.59375-0.58984 1.4609-0.60938 2.5938v5.875h-3.8438v-6.2344c0-1.3203-0.11719-2.1758-0.34375-2.5625-0.23047-0.38281-0.63672-0.57812-1.2188-0.57812-0.73047 0-1.2969 0.30469-1.7031 0.90625-0.39844 0.60547-0.59375 1.4648-0.59375 2.5781v5.8906h-3.8438v-11.969h3.8438v1.75c0.46875-0.66406 1.0039-1.1719 1.6094-1.5156 0.61328-0.34375 1.2891-0.51562 2.0312-0.51562 0.82031 0 1.5508 0.19922 2.1875 0.59375 0.63281 0.39844 1.1133 0.96094 1.4375 1.6875z"/>
  </symbol>
  <symbol id="p" overflow="visible">
   <path d="m13.859-7.2812v7.2812h-3.8438v-5.5469c0-1.0508-0.027344-1.7695-0.078125-2.1562-0.042969-0.39453-0.12109-0.6875-0.23438-0.875-0.14844-0.25-0.35156-0.44141-0.60938-0.57812-0.25-0.14453-0.54297-0.21875-0.875-0.21875-0.79297 0-1.418 0.3125-1.875 0.9375-0.46094 0.61719-0.6875 1.4648-0.6875 2.5469v5.8906h-3.8125v-16.625h3.8125v6.4062c0.58203-0.69531 1.1953-1.207 1.8438-1.5312 0.64453-0.33203 1.3594-0.5 2.1406-0.5 1.3828 0 2.4297 0.42969 3.1406 1.2812 0.71875 0.84375 1.0781 2.0742 1.0781 3.6875z"/>
  </symbol>
  <symbol id="o" overflow="visible">
   <path d="m2.0156-15.953h4.5781l5.8125 10.938v-10.938h3.8906v15.953h-4.5938l-5.7969-10.938v10.938h-3.8906z"/>
  </symbol>
  <symbol id="n" overflow="visible">
   <path d="m1.7031-4.6562v-7.3125h3.8438v1.2031c0 0.64844-0.007813 1.4609-0.015625 2.4375v1.9688c0 0.96094 0.023438 1.6523 0.078125 2.0781 0.050781 0.41797 0.13281 0.72656 0.25 0.92188 0.15625 0.25 0.35938 0.44531 0.60938 0.57812 0.25781 0.13672 0.55078 0.20312 0.875 0.20312 0.80078 0 1.4258-0.30469 1.875-0.92188 0.45703-0.61328 0.6875-1.4688 0.6875-2.5625v-5.9062h3.8281v11.969h-3.8281v-1.7344c-0.57422 0.69922-1.1836 1.2148-1.8281 1.5469-0.64844 0.33203-1.3555 0.5-2.125 0.5-1.3867 0-2.4453-0.42188-3.1719-1.2656-0.71875-0.85156-1.0781-2.0859-1.0781-3.7031z"/>
  </symbol>
  <symbol id="m" overflow="visible">
   <path d="m13.859-7.2812v7.2812h-3.8438v-5.5781c0-1.0312-0.027344-1.7383-0.078125-2.125-0.042969-0.39453-0.12109-0.6875-0.23438-0.875-0.14844-0.25-0.35156-0.44141-0.60938-0.57812-0.25-0.14453-0.54297-0.21875-0.875-0.21875-0.79297 0-1.418 0.3125-1.875 0.9375-0.46094 0.61719-0.6875 1.4648-0.6875 2.5469v5.8906h-3.8125v-11.969h3.8125v1.75c0.58203-0.69531 1.1953-1.207 1.8438-1.5312 0.64453-0.33203 1.3594-0.5 2.1406-0.5 1.3828 0 2.4297 0.42969 3.1406 1.2812 0.71875 0.84375 1.0781 2.0742 1.0781 3.6875z"/>
  </symbol>
  <symbol id="l" overflow="visible">
   <path d="m2.0156-15.953h6.8125c2.0312 0 3.5859 0.45312 4.6719 1.3594 1.0938 0.89844 1.6406 2.1797 1.6406 3.8438 0 1.6797-0.54688 2.9688-1.6406 3.875-1.0859 0.89844-2.6406 1.3438-4.6719 1.3438h-2.7031v5.5312h-4.1094zm4.1094 2.9844v4.4531h2.2656c0.80078 0 1.4141-0.19141 1.8438-0.57812 0.4375-0.38281 0.65625-0.9375 0.65625-1.6562 0-0.70703-0.21875-1.2539-0.65625-1.6406-0.42969-0.38281-1.043-0.57812-1.8438-0.57812z"/>
  </symbol>
  <symbol id="k" overflow="visible">
   <path d="m1.8438-11.969h3.8125v11.75c0 1.6016-0.38672 2.8281-1.1562 3.6719-0.76172 0.84375-1.8711 1.2656-3.3281 1.2656h-1.8906v-2.5h0.65625c0.72656 0 1.2266-0.16797 1.5-0.5 0.26953-0.32422 0.40625-0.96875 0.40625-1.9375zm0-4.6562h3.8125v3.125h-3.8125z"/>
  </symbol>
  <symbol id="j" overflow="visible">
   <path d="m11.5-11.594v3.125c-0.52344-0.35156-1.043-0.61328-1.5625-0.78125-0.52344-0.17578-1.0625-0.26562-1.625-0.26562-1.0742 0-1.9062 0.3125-2.5 0.9375s-0.89062 1.4961-0.89062 2.6094c0 1.1172 0.29688 1.9844 0.89062 2.6094s1.4258 0.9375 2.5 0.9375c0.59375 0 1.1562-0.085937 1.6875-0.26562 0.53906-0.17578 1.0391-0.44141 1.5-0.79688v3.125c-0.59375 0.23047-1.1992 0.39453-1.8125 0.5-0.61719 0.11328-1.2344 0.17188-1.8594 0.17188-2.1562 0-3.8438-0.55078-5.0625-1.6562-1.2188-1.1133-1.8281-2.6562-1.8281-4.625s0.60938-3.5039 1.8281-4.6094c1.2188-1.1133 2.9062-1.6719 5.0625-1.6719 0.625 0 1.2383 0.058594 1.8438 0.17188 0.61328 0.10547 1.2227 0.26562 1.8281 0.48438z"/>
  </symbol>
 </defs>
 <g>
  <path d="m473.41 92.312c-2.8086 2.0156-6.2109 4.4492-10.207 7.3008-1.2031 0.96875-2.4805 1.9609-3.8164 3.0039-2.875 2.2461-6.125 4.7852-9.5117 7.6836-1.3633 1.1602-2.7734 2.3672-4.2227 3.6094-1.1875 1.0156-2.3984 2.0547-3.6562 3.1289-2.7461 2.457-5.6445 5.0312-8.7188 7.7539-6.4023 5.7305-13.441 11.68-20.93 17.688l-2.5156 2.0625c-7.2344 5.9062-14.719 12.02-22.453 19.309-0.73047 0.73047-1.4805 1.457-2.2266 2.1875-1.3984 1.3516-2.8398 2.75-4.2344 4.2383-0.77344 0.875-1.5703 1.75-2.3711 2.625-1.3125 1.418-2.625 2.8789-3.9375 4.4102-2.4883 2.9453-4.9453 5.9531-7.5391 9.1406-1.75 2.1367-3.5 4.3086-5.3359 6.5195v-0.003906c-5.9023 7.3984-12.43 14.281-19.508 20.562-0.21484 0.17969-0.25391 0.49219-0.097656 0.72266 0.15625 0.23047 0.46094 0.30859 0.70703 0.17188 1.8711-0.98828 3.7422-1.9805 5.6094-2.9805 1.8242-0.97656 3.6406-1.9414 5.4727-2.9141l5.6016-3.3516 6.9141-4.1328c3.2891-1.8867 6.4453-4.0039 9.4922-6.0547 0.875-0.57813 1.7109-1.1523 2.5664-1.7188 1.0977-0.74219 2.1875-1.4727 3.3047-2.1875 2.7422-1.8164 5.582-3.6914 8.2109-5.7148 33.312-24.637 58.277-44.363 78.559-62.078 1.793-1.5 3.5625-2.9961 5.3203-4.4883l3.1367-2.6523c1.3984-1.1992 2.7734-2.3672 4.1484-3.5 1.2773-1.1016 2.4766-2.2969 3.5859-3.5703l0.13281-0.14844c1.75-1.9961 3.5-4.0508 5.1719-6.0469 2.7109-3.2305 5.5195-6.5625 8.457-9.625 2.8594-3.082 6.0508-5.8359 9.5156-8.2188 0.19922-0.12891 0.29297-0.37109 0.23047-0.60156-0.058594-0.23047-0.26172-0.39453-0.5-0.40625-9.1133-0.20312-18.199 1.0586-26.914 3.7344-0.054687 0.015625-0.10547 0.035157-0.14844 0.066407-0.57812 0.375-1.1914 0.75391-1.8828 1.1602-0.39453 0.23047-0.8125 0.46094-1.2461 0.69922-1.418 0.73047-2.7656 1.5859-4.0352 2.5508-0.042968 0.019531-0.085937 0.042968-0.12891 0.066406z"/>
  <path d="m218.64 292.83c-0.74219-0.32422-1.4805-0.62891-2.1875-0.92578s-1.4258-0.59375-2.1055-0.875c-1.8711-0.92578-3.9062-1.4688-5.9883-1.5977-1.4414 0.26953-2.7422 1.0312-3.6836 2.1523-0.92578 0.92187-1.75 1.8984-2.5664 2.8398l-0.65234 0.75781c-0.51172 0.59766-1.0273 1.1445-1.5234 1.6641l-0.097657 0.10547v-0.003906c-0.11328 0.11719-0.16406 0.27734-0.14453 0.4375 0.027344 0.16406 0.125 0.30859 0.27344 0.39453 0.9375 0.54297 1.8359 1.1602 2.6758 1.8477 0.125 0.097656 0.28125 0.14062 0.4375 0.12109 4.5664-0.78125 9.2578 0.29297 13.027 2.9844 0.09375 0.058594 0.20313 0.09375 0.3125 0.09375 0.082032 0 0.16406-0.019531 0.24219-0.054687 0.16797-0.085938 0.28516-0.25 0.30078-0.4375 0.20312-3.0039 0.91016-5.9531 2.0938-8.7227 0.089844-0.20312 0.042969-0.44141-0.11328-0.59766-0.070312-0.058594-0.14844-0.10938-0.23047-0.14453z"/>
  <path d="m392.93 318.97c0.69922-0.22656 1.3867-0.4375 2.0742-0.66016 0.57422-0.17188 1.1094-0.29297 1.6445-0.41016 0.36328-0.078125 0.72266-0.16016 1.0703-0.25391l3.9062-0.92188 1.9531-0.73047 0.003906-0.003906c0.046875-0.019532 0.09375-0.042969 0.13672-0.078126l2.9844-2.1875c1.1133-0.78125 2.1523-1.6602 3.1133-2.625l0.70703-0.66016c3.6406-3.5234 7.0703-7.2617 10.273-11.191 0.90234-1.0664 1.8008-2.1172 2.6992-3.1602 3.8008-4.6641 8.0938-8.9062 12.801-12.656 3.4258-2.6133 7.0312-4.9805 10.793-7.082 0.96094-0.56641 1.9062-1.1289 2.8359-1.6836l1.8906-1.0977c8.1445-4.75 15.188-8.8516 21.148-13.203v-0.003907c5.7109-3.9531 10.789-8.7539 15.059-14.234 1.5234-1.9922 2.8555-4.125 3.9766-6.3711l0.40625-0.76953c0.25781-0.66016 0.52344-1.3125 0.78906-1.9258h-0.003906c0.6875-1.4844 1.2227-3.0352 1.6016-4.6289 0.26172-0.98828 0.52344-1.9492 0.78906-2.8828v-0.0625c0.12109-0.75 0.21094-1.4336 0.26562-2.1172v0.003906c0.027344-0.26953-0.14844-0.51953-0.41016-0.58203-6.2539-1.9062-12.883-2.25-19.301-0.99609-0.125 0.03125-0.23047 0.097656-0.30859 0.19922-0.30078 0.38672-0.58594 0.78906-0.875 1.1797l-0.31641 0.4375h0.003907c-0.03125 0.046875-0.058594 0.097657-0.074219 0.14844-0.16016 0.48438-0.29688 0.97266-0.4375 1.5234l-0.046875 0.15625c-0.15234 0.51172-0.30078 1.0586-0.46484 1.6445h-0.003906c-0.68359 2.8555-1.7344 5.6094-3.1211 8.1953-0.21094 0.31641-0.41016 0.64844-0.61719 0.98047-0.38672 0.66797-0.81641 1.3086-1.2812 1.9258l-0.41406 0.51562c-0.64453 0.78906-1.3125 1.6133-1.9766 2.4648-0.875 1.0508-1.8281 2.1602-2.8086 3.3203l-2.625 3.1133c-3.9453 4.6211-8.5195 9.9844-13.719 16.09-0.875 1.0117-1.9102 2.0117-3.0117 3.0625-0.51953 0.5-1.0469 1.0078-1.5 1.4688-1.75 1.3125-3.6133 2.7461-5.5898 4h-0.003906c-4.2617 2.4219-8.6641 4.582-13.184 6.4727-0.68359 0.31641-1.3711 0.63672-2.0664 0.95313-4.1797 1.7461-8.1562 3.9453-11.859 6.5625-2.3516 1.4844-4.3867 3.418-5.9883 5.6875-0.37891 0.48437-0.76562 0.99609-1.1562 1.5195-1.4531 2.0742-3.1367 3.9805-5.0117 5.6875-5.6719 3.9609-12.246 6.4297-19.125 7.1758-6.2969 0.9375-12.641 1.5039-19.004 1.6914-0.125 0.003906-0.24609 0.050782-0.33594 0.13672-0.875 0.75-1.7383 1.4961-2.5938 2.2344-3.582 3.0625-7.2891 6.2656-10.633 9.7266-0.19531 0.20313-0.42188 0.37891-0.66406 0.51953-0.14844 0.082031-0.25 0.22656-0.27734 0.39062-0.27734 1.7461-0.64844 3.4766-1.1016 5.1836-0.042968 0.16406-0.007812 0.33984 0.09375 0.47656 0.10547 0.13281 0.26562 0.21484 0.43359 0.21484h0.0625c16.219-2.1953 32.16-6.0977 47.562-11.637z"/>
  <path d="m375.7 293.26c-0.875 1.3633-1.75 2.75-2.6914 4.1562-2.5234 3.6602-5.4414 7.0352-8.7031 10.062-0.16406 0.15234-0.21484 0.39063-0.13281 0.59766 0.082031 0.21094 0.28516 0.34766 0.51172 0.34766h0.03125-0.003907c4.457-0.21484 8.8984-0.65234 13.309-1.3125 6.2891-0.66016 12.316-2.8516 17.559-6.3867 1.7734-1.625 3.3594-3.4375 4.7383-5.4102 0.33984-0.4375 0.68359-0.90234 1.043-1.3594 0.94141-1.2227 1.9648-2.3789 3.0625-3.4648 1.1367-1.0234 2.3477-1.9609 3.6211-2.8047 3.9609-2.75 8.2188-5.0508 12.688-6.8594l1.8281-0.82422c4.4336-1.7891 8.7578-3.8438 12.945-6.1562 1.9336-1.1758 3.668-2.4375 5.3125-3.6758 0.53906-0.53125 1.0781-1.0234 1.6094-1.5156 0.875-0.82812 1.8203-1.6797 2.6836-2.625l5.2109-5.8047c3.2812-3.6562 6.2617-6.9766 8.9766-9.9922l5.6875-6.2617c0.46484-0.51172 0.91406-1.0234 1.3594-1.5234l1.0195-1.1523v0.003906c0.45312-0.54688 0.87891-1.1172 1.2734-1.707 0.21875-0.31641 0.4375-0.625 0.65234-0.92188v-0.035157c1.2812-2.0625 2.3281-4.2656 3.1211-6.5625 0.09375-0.24609-0.003906-0.52734-0.23438-0.66016-0.22656-0.13281-0.51953-0.085937-0.69141 0.11328-16.402 18.633-38.855 30.875-63.402 34.562-3.7344 0.62891-7.5117 0.98047-11.301 1.0469-0.17578 0.003907-0.33984 0.089844-0.4375 0.23828-3.1094 4.3555-6.5938 8.4336-10.402 12.191-3.8945 4.1836-7.3281 8.7773-10.242 13.695z"/>
  <path d="m500.5 95.199c-2.7734 2.918-5.3672 6.0273-8.1172 9.3242-1.7188 2.0664-3.5 4.1953-5.3477 6.3086l-0.16016 0.17969c-1.1523 1.3203-2.3945 2.5625-3.707 3.7227l-7.4688 6.375c-1.6992 1.457-3.4062 2.9219-5.1484 4.4023-20.363 17.902-45.379 37.758-78.703 62.496-2.625 2.0312-5.4805 3.9375-8.2344 5.75-1.1055 0.73438-2.2188 1.4688-3.3242 2.2188l-1.75 1.1719c-3.3242 2.2578-6.7656 4.5859-10.352 6.6562-1.957 1.1797-3.9258 2.3594-5.9062 3.5391-2.2539 1.3438-4.5195 2.6953-6.7695 4.0508l-4.6367 2.4844c-2.8789 1.5391-5.7969 3.0938-8.75 4.6641-1.8125 1.0273-3.6719 1.9648-5.4648 2.875v-0.003907c-2.7109 1.3086-5.3516 2.7617-7.9102 4.3516-2.0664 1.1719-4.0234 2.5508-5.918 3.8906l-0.48438 0.33984-0.003906 0.003906c-1.9336 1.3086-3.7852 2.7383-5.543 4.2812l-0.62891 0.52344c-8.0977 6.6055-14.504 15.051-18.672 24.633-0.0625 0.15234-0.054688 0.32812 0.027344 0.47266 0.078125 0.14453 0.21875 0.24609 0.38281 0.27734 0.33984 0.0625 0.6875 0.11328 1.0352 0.16016 0.35156 0.046875 0.67969 0.10156 1.0117 0.16016 0.22656 0.039063 0.45312-0.070312 0.57031-0.26562 0.11328-0.19531 0.09375-0.44141-0.046875-0.61719 1.7109-1.4336 3.4023-2.8672 5.082-4.293 5.3711-4.5586 10.453-8.8594 15.75-12.77 6.7383-5.1367 14.086-9.418 21.875-12.754 2.9297-1.2695 5.8984-2.332 8.75-3.3594l2.2305-0.80078c1.3125-0.37891 2.6016-0.77734 3.8906-1.1719 2.3438-0.72656 4.5625-1.4141 6.832-1.957 5.5781-1.4922 10.938-2.7227 16.086-3.9062l3.8555-0.875c5.9219-1.4062 12.055-2.8594 17.652-4.5352 2.8867-0.75781 5.6172-1.7188 7.9375-2.5547 2.9531-0.99609 5.3008-1.8477 7.3945-2.6719v-0.003906c8.3398-3.3672 16.953-6.0117 25.746-7.8984 5.2695-1.0703 10.648-1.4883 16.02-1.2461 0.21094-0.003906 0.41016-0.12109 0.51562-0.30859 1.7969-3.8828 2.9023-8.0469 3.2734-12.312 0.18359-1.3945 0.30078-2.7852 0.41016-4.125 0.046875-0.55859 0.09375-1.1094 0.14062-1.6445 0.11719-0.94141 0.21094-1.8516 0.29297-2.7109 0.035156-0.23437 0.058594-0.46875 0.078125-0.69922 0.023437-0.23047 0.042969-0.41016 0.058593-0.55469l-0.003906-0.003906c0.039063-0.22266 0.066406-0.44922 0.074219-0.67578l-0.03125-0.35547h0.003906c-0.10547-0.90234-0.26172-1.8008-0.46875-2.6875-0.12109-0.59375-0.25391-1.2031-0.35547-1.8125v0.003906c-0.17578-0.83203-0.24219-1.6836-0.20703-2.5312 0.023438-0.90234 0.32812-1.7734 0.875-2.4922 1.4141-1.6328 3.2031-2.8945 5.2109-3.6758 0.33594-0.15625 0.66016-0.30469 0.91016-0.4375 3.125-0.92578 5.8789-2.8086 7.875-5.3867v-0.023438 0.003907c-0.082031 0.53125-0.23828 1.0547-0.46094 1.543-0.54297 1.0586-1.2891 1.9961-2.1875 2.7695-1.3242 1.1133-2.7656 2.0781-4.293 2.8828l-0.28125 0.16016v0.003906c-1.8242 0.85156-3.4297 2.1016-4.7031 3.6641l-0.082032 0.125v0.003906c-0.11719 0.15234-0.1875 0.33594-0.19531 0.52734-0.003906 0.050781-0.003906 0.10156 0 0.14844v0.35156c0.023438 0.61719 0.11719 1.2305 0.26953 1.8281 0.10156 0.52344 0.24219 1.0625 0.39062 1.6289 0.28516 1.0156 0.50391 2.0547 0.65625 3.1016l0.058594 0.80469-0.058594 0.79297c-0.03125 0.4375-0.058594 0.82812-0.11719 1.2852l-0.027344 0.4375c-0.050781 0.71875-0.10547 1.4688-0.17969 2.2344l-0.074219 1.25c-0.085938 1.4688-0.17969 2.9883-0.36328 4.6094v0.003907c-0.34375 4.1094-1.3281 8.1445-2.9141 11.953-0.070313 0.15625-0.058594 0.33984 0.027344 0.48828 0.085937 0.14844 0.23828 0.25 0.41016 0.26953 4.1211 0.58594 8.1641 1.6406 12.047 3.1445l1.9727 0.875c0.75391 0.33984 1.4375 0.65234 2.0352 0.91016 0.59375 0.25781 1.0273 0.5625 1.4609 0.81641-0.46484-0.1875-0.97656-0.39453-1.5469-0.61719-1.1445-0.40625-2.4922-0.875-4.0938-1.4141v0.003906c-10.379-3.2344-21.445-3.5508-31.988-0.91797-8.6211 2.1016-17.066 4.8672-25.262 8.2773-2.4531 1.0156-4.875 1.9297-7.4102 2.8008-2.3672 0.875-5.1328 1.8984-8.0156 2.7109-5.2227 1.625-10.68 3.0117-17.789 4.7305-1.8125 0.4375-3.6484 0.875-5.5156 1.3398-4.6211 1.1055-9.4023 2.2578-14.289 3.6055-2.2227 0.54297-4.375 1.2188-6.6367 1.9375-1.2812 0.40625-2.5781 0.8125-3.9375 1.2109l-1.5273 0.55078c-3.0039 1.082-6.125 2.1875-9.1875 3.5273-7.5469 3.2617-14.66 7.4414-21.184 12.445-5.207 3.875-10.32 8.207-15.75 12.793l-3.1641 2.6719c-0.15234 0.12891-0.22266 0.33594-0.18359 0.53125 0.042969 0.19922 0.19141 0.35547 0.38672 0.41406 1.8008 0.51953 3.5664 1.1602 5.2852 1.9062 0.15234 0.070313 0.32812 0.070313 0.48047 0 3.8984-2.1289 7.5977-4.5703 11.184-6.9336 1.9688-1.3125 3.9375-2.5898 5.9062-3.8203 5.6641-3.8359 12-6.5781 18.676-8.082 5.6094-0.91797 11.32-1.0664 16.969-0.4375l1.3711 0.097656c5.2578 0.61719 10.57 0.56641 15.816-0.15234 3.6133-0.76562 7.1094-2.0078 10.395-3.6992 0.9375-0.4375 1.8594-0.875 2.793-1.2617 2.5742-1.1953 5.0078-2.4414 7.3672-3.6484 1.4102-0.72266 2.7852-1.4258 4.1328-2.0859s2.7266-1.3125 4.0312-1.9375c2.1875-1.0703 4.2617-2.082 6.3203-2.9375 1.1758-0.4375 2.3242-0.90234 3.4414-1.3398 2.0781-0.81641 4.0391-1.5898 5.9023-2.2383v0.003906c8.2695-2.3203 16.793-3.6094 25.375-3.8281h0.41406c2.1875 0.035156 3.707 0.09375 4.8125 0.14844-1.0898 0.13281-2.625 0.28516-4.7773 0.46484-0.75781 0.10938-1.5781 0.21875-2.4648 0.33203h0.003906c-7.7305 0.89453-15.363 2.5195-22.789 4.8477-1.9453 0.75781-3.9688 1.625-6.125 2.543-0.92188 0.39453-1.8672 0.80078-2.8359 1.207-2.0391 0.875-4.0938 1.9453-6.2734 3.0625-1.2422 0.64062-2.5117 1.3125-3.8242 1.9414-1.4219 0.72266-2.8555 1.4883-4.3281 2.2656-2.2891 1.2148-4.6523 2.4727-7.1758 3.6914-0.97656 0.4375-1.9609 0.90625-2.9609 1.3828h0.003906c-3.4336 1.832-7.1055 3.1797-10.91 3.9961-5.4805 0.83984-11.047 0.96484-16.562 0.36719l-0.65234-0.042969v-0.003906c-5.6172-0.63281-11.293-0.48828-16.871 0.4375-6.2578 1.4336-12.195 4.0312-17.5 7.6523-1.8516 1.1602-3.7188 2.3945-5.6289 3.6562-2.8672 1.8867-5.8242 3.8398-8.957 5.6875v0.003906c-0.16406 0.097656-0.26562 0.27344-0.26562 0.46875 0 0.19141 0.10156 0.36719 0.26562 0.46484l0.875 0.53125c0.085937 0.050781 0.18359 0.078125 0.28125 0.078125h0.09375c0.09375-0.019532 0.1875-0.042969 0.27734-0.074219l0.16016-0.039063h0.003906c10.562-0.4375 20.957-2.7695 30.695-6.8867 2.918-1.1953 6.0625-1.7578 9.2148-1.6523 5.6055 0.32812 11.184 1.0195 16.695 2.0664 7.1406 1.4648 14.418 2.1562 21.707 2.0586 16.223-0.69141 32.082-5.0039 46.422-12.621 6.9648-3.7773 13.422-8.4258 19.215-13.832 3.6797-3.418 7.5391-7.3906 11.812-12.148 0.875-0.96875 1.75-1.9336 2.582-2.8945 0.60938-0.68359 1.7188-2.3281 3.0039-4.2344 1.9453-2.8945 6.0117-8.9219 7.0859-8.957h0.003906c0.17578-0.011719 0.33594-0.10156 0.4375-0.24609 0.066406-0.039062 0.125-0.089844 0.17188-0.15234 5.0273-7.1562 9.6758-14.566 13.934-22.203 3.5781-6.1641 6.9609-11.988 10.625-17.367l1.75-2.6016c11.875-17.383 28.133-41.188 21.828-62.723v-0.003906c-1.7148-6.4062-6.1367-11.742-12.105-14.617-0.15625-0.078126-0.33594-0.078126-0.49219 0-0.15234 0.078124-0.26172 0.22656-0.28906 0.39844l-0.14062 0.90234v-0.003907c-0.77734 3.0312-1.9297 5.9531-3.4297 8.6992-1.75 3.2109-3.6562 6.1719-5.5 9.0352-1.2617 1.9453-2.4453 3.7852-3.5625 5.6875h0.003906c-1.3906 2.2734-2.6055 4.6484-3.6328 7.1094-0.48047 1.1836-0.88281 2.3984-1.1992 3.6406l-0.38672 1.8164 0.003906-0.003906c-0.085938 0.54297-0.10547 1.0898-0.066406 1.6367 0.10547 0.95312 0.32031 1.8867 0.64062 2.7891l0.23438 0.77344c0.44141 1.3594 0.56641 2.8008 0.36719 4.2148-0.64844 2.6289-2.082 4.9961-4.1094 6.793-3.707 3.0586-7.9844 5.3594-12.586 6.7617-3.1641 1.0195-6.125 2.1875-8.957 3.3516-1.0234 0.41406-2.043 0.82422-3.0625 1.2266-2.6992 1.043-5.3125 2.0703-7.8359 3.0625l-3.2305 1.2656c-1.8516 0.72266-3.6641 1.4258-5.4375 2.1055-4.9688 1.9062-9.6602 3.7148-13.93 5.5078-4.5 1.7773-8.6406 3.6406-12.297 5.2812l-3.3438 1.4961-2.25 1.1172c-3.707 1.832-6.9062 3.418-9.7734 4.9844l-2.3984 1.3867c-2.3945 1.3828-4.5195 2.625-6.4102 3.6953l-1.1055 0.73438-2.1875 1.457c0.94531-0.72266 2.0039-1.5195 3.1836-2.3594 1.6328-1.0195 3.4492-2.1875 5.4805-3.4688l3.1367-1.9922c2.9688-1.75 6.3555-3.5469 10.273-5.6289l1.5898-0.84375c1.1289-0.53125 2.2891-1.082 3.5-1.6445 3.6016-1.7148 7.6797-3.6523 12.074-5.4922 4.0625-1.7852 8.4805-3.5625 13.152-5.4414l6.125-2.4766 13.379-5.4766c3.1055-1.3125 6.3203-2.625 9.625-3.75 4.3008-1.3516 8.2969-3.5273 11.77-6.4023 1.6367-1.5078 2.8125-3.4453 3.3984-5.5938 0.17188-1.2852-0.003907-2.5938-0.50781-3.7891-0.36328-1.1133-0.64062-2.25-0.82031-3.4062-0.054688-0.73047-0.03125-1.4648 0.078125-2.1875l0.40234-2.0508v-0.003906c0.33203-1.3516 0.75391-2.6797 1.2695-3.9766 0.98828-2.4336 2.1602-4.7969 3.5-7.0586l0.22656-0.40234c1.168-1.9922 2.4336-3.9844 3.6523-5.9141 1.7891-2.8125 3.6367-5.7227 5.25-8.75v-0.003907c1.3633-2.5586 2.4141-5.2773 3.125-8.0938l0.23438-1.582c0.039063-0.26172-0.11328-0.51172-0.36328-0.59375-0.97656-0.33594-1.9727-0.61328-2.9844-0.83594-0.089844-0.023437-0.1875-0.023437-0.27734 0-5.4102 2.2305-10.195 5.7383-13.953 10.223z"/>
  <path d="m176.02 331.59c1.4609 3.7227 4.9453 6.2617 8.9336 6.5156 1.3555 0.21484 2.7227 0.32422 4.0938 0.32031 6.1523-0.35547 12.207-1.6836 17.938-3.9375 1.4219-0.47266 2.8359-0.94141 4.2383-1.3789 0.27734-0.085937 0.44141-0.37109 0.37109-0.65234-2.4219-9.6914-8.8984-26.688-17.801-28.836h-0.003906c-4.1992-0.64062-8.3906 1.2031-10.762 4.7305-2.7109 3.2539-4.8203 6.9727-6.2266 10.973-14.172 3.4492-28.504 0.35156-42.438 3.5234-0.90234 0.20703-1.8711 0.48438-2.8281 0.75l0.003906-0.003906c-0.20312-0.61328-0.66406-1.1055-1.2617-1.3477-0.59766-0.24219-1.2695-0.20703-1.8398 0.09375-9.1875 4.9453-24.164 14-34.809 8.5586-2.5-1.2812-4.7148 2.4922-2.1875 3.7812 3.4844 1.7188 7.3711 2.4531 11.242 2.125-1.7148 1.1562-3.3633 2.4102-4.9336 3.7539-2.125 1.8555 0.98047 4.9375 3.0938 3.0938 12.277-10.746 34.203-16.707 49.664-16.977 8.4297 0.003906 16.836-0.85547 25.09-2.5625-0.48828 2.4883-0.34375 5.0586 0.42188 7.4766z"/>
  <path d="m340.84 339.75h0.03125l6.125-0.35938c1.2383-0.24609 2.4766-0.4375 3.7109-0.67188 1.9922-0.34375 4.0547-0.69922 6.0664-1.1797v-0.003907c6.2734-1.6875 12.414-3.8398 18.375-6.4297l5.5742-2.4453c3.6094-1.5898 7.3359-3.2344 10.977-4.75v-0.003906c0.26953-0.11328 0.40234-0.41797 0.30078-0.69531-0.10547-0.27344-0.40625-0.41797-0.6875-0.32812-15.676 5.6875-31.949 9.5547-48.504 11.535-0.19531 0.023437-0.36328 0.14844-0.4375 0.32812-0.59375 1.4297-1.2617 2.832-1.9961 4.1953-0.09375 0.16797-0.089844 0.375 0.007812 0.54297 0.10156 0.16406 0.28125 0.26562 0.47266 0.26562z"/>
  <path d="m368.81 264.48-0.64062-0.097656c-8.0625-1.1914-14.438-2.1406-22.566 1.5039-0.4375 0.20703-1.0117 0.4375-1.6094 0.73438v0.003906c-2.5352 1.2891-5.1992 2.3125-7.9453 3.0625-3.5312 0.61328-7.2656 1.0703-12.125 1.4883h0.003907c-0.22266 0.015625-0.41016 0.16406-0.47656 0.375-0.070313 0.21094-0.003906 0.44531 0.16406 0.58594 12.84 11.004 20.738 26.688 21.93 43.555 0.007813 0.21094 0.14062 0.39844 0.33594 0.47656 0.066407 0.027344 0.13672 0.042969 0.21094 0.042969 0.13672 0 0.26562-0.050781 0.36719-0.14062 1.8359-1.6523 3.7656-3.2852 5.6367-4.8633h-0.003906c7.207-5.332 13.285-12.031 17.891-19.719 3.3125-5.7734 7.4062-11.055 12.172-15.703 2.3828-2.5469 4.8477-5.1758 7.0781-7.9688v0.003906c0.13281-0.16016 0.16016-0.37891 0.074219-0.56641-0.082032-0.18359-0.26172-0.30469-0.46484-0.31641-6.6406-0.41016-13.152-1.4023-20.031-2.457z"/>
  <path d="m603.49 275.69c-4.5781 2.0117-9.0195 4.4414-13.316 6.793-4.8203 2.75-9.7852 5.2344-14.875 7.4375-11.137 4.3516-22.516 8.0391-34.086 11.043l-0.875 0.24219c-10.648 2.8398-20.699 5.5195-30.555 7.6836-7.7305 1.6289-15.145 2.7227-22.312 3.7812-2.2188 0.32812-4.4102 0.65234-6.5625 0.98438-16.586 2.4297-33.906 5.3477-47.348 11.836-7.5781 3.582-13.328 6.4688-18.105 9.1016-0.75 0.4375-1.4648 0.92188-2.1875 1.3867l-0.875 0.57813v-0.007813c-0.20312 0.13281-0.29297 0.38281-0.22656 0.61328 0.070312 0.23438 0.28125 0.39453 0.52734 0.39453 0.070313-0.003907 0.13672-0.015626 0.20313-0.039063 0.80859-0.32812 1.6641-0.6875 2.5664-1.0625 1.75-0.72656 3.6523-1.5273 5.793-2.3594 0.76953-0.29297 1.5625-0.60547 2.3789-0.94141h0.003906c4.9297-2.0742 10-3.7969 15.172-5.1523 8.2188-2.2539 16.723-3.3125 25.242-3.1406 1.875-0.03125 3.793-0.035156 5.7539-0.039063 3.0898 0 6.2852 0 9.5664-0.13672 1.8438 0 3.6484-0.14453 5.5625-0.29688 0.875-0.070313 1.7891-0.14453 2.7188-0.20312 0.92578-0.058594 1.8945-0.25391 2.8398-0.40234l1.3945-0.21875v0.003906c1.4883-0.19531 2.9648-0.48828 4.4141-0.875l7.5781-1.875c3.5703-0.875 7.2539-1.7891 11.051-2.7422 1.6445-0.37891 3.3164-0.79297 4.9883-1.2305 1.0156-0.26953 2.0312-0.58203 3.0625-0.875 0.66406-0.20703 1.3398-0.41016 2.0273-0.60938l10.473-3.1602c1.6211-0.49219 3.2656-0.98828 4.9297-1.4844 1.9922-0.59766 4.0039-1.2031 6.0586-1.8281l11.398-3.9375c4.1055-1.4375 8.3594-2.4023 12.688-2.8711 3.6562-0.39062 7.3516 0.050781 10.816 1.2852 0.16797 0.0625 0.35547 0.039063 0.5-0.066406 4.6094-3.1133 8.8789-6.707 12.727-10.723 4.4375-4.5859 7.7422-10.141 9.6602-16.223 0.0625-0.20312-0.003907-0.42578-0.16406-0.56641-0.15625-0.14062-0.38281-0.17578-0.57812-0.089844z"/>
  <path d="m570.79 305.38c-4.0664 0.45312-8.0664 1.3555-11.93 2.6914l-11.414 3.9375-4.8125 1.4336c-2.1016 0.62891-4.1797 1.2422-6.2344 1.8438-3.5977 1.0859-7.1016 2.1367-10.559 3.1328-0.60938 0.17969-1.2188 0.36328-1.8242 0.55078-1.0859 0.32812-2.1602 0.65625-3.207 0.93359l-1.6445 0.39453c-1.1523 0.27734-2.2852 0.54688-3.418 0.80859-6.6133 1.5742-12.938 3.0977-18.887 4.5312-1.4727 0.35547-2.9648 0.625-4.4688 0.80859l-1.5312 0.22266c-0.97266 0.14844-1.9375 0.29297-2.8672 0.38672-1.0156 0.050781-2.0273 0.12109-3.0234 0.19141-1.9062 0.13672-3.7422 0.27734-5.5039 0.25-3.2305 0.0625-6.3047 0-9.2891 0-2.0898-0.03125-4.1094-0.0625-6.0859-0.046876v-0.003906c-8.3398-0.32812-16.684 0.52344-24.789 2.5312-4.9531 1.1523-9.8281 2.6133-14.602 4.375-0.26172 0.10156-0.40234 0.38281-0.33203 0.65234 0.070312 0.26953 0.33594 0.44531 0.61328 0.40625 19.738-3.6836 34.074-4.375 45.113-2.1406 1.168 0.23047 2.2891 0.53906 3.3672 0.83984 0.55078 0.15234 1.0938 0.30469 1.5781 0.4375l0.96875 0.35938c1.4102 0.49609 2.7891 1.0625 4.1406 1.7031 0.070312 0.046875 0.14453 0.09375 0.22266 0.13281 0.089844 0.0625 0.19531 0.09375 0.30469 0.09375h0.10156c4.4375-0.82422 8.0938-1.3594 11.512-1.6914v-0.003906c20.16-1.8594 39.879-6.9961 58.387-15.203 9.0195-3.8906 17.781-8.3555 26.227-13.371 0.19141-0.12109 0.29297-0.35156 0.24609-0.57422-0.039063-0.22266-0.21484-0.39844-0.4375-0.4375-1.957-0.30469-3.9492-0.36328-5.9219-0.17578z"/>
  <path d="m331.8 338.07c7.6172-14.855 6.957-32.605-1.75-46.848-7.1094-13.809-20.984-22.828-36.488-23.723-0.10938-0.003906-0.22266-0.019531-0.32812-0.046875-0.10156-0.019531-0.20703-0.019531-0.30469 0l-0.15234 0.03125c-16.371 1.5742-69.664 9.043-67.906 38.938 0.011718 0.25781 0.20703 0.47266 0.46484 0.51172 0.25391 0.039062 0.50391-0.10938 0.59375-0.35156 1.7852-4.6641 4.5117-8.9141 8.0156-12.477 4.4453-4.4648 9.7031-8.0391 15.488-10.535 4.5234-2.0625 9.2305-3.6953 14.059-4.8867 1.832-0.46094 3.9766-0.97266 6.0039-1.2812 1.9766-0.40234 3.6797-0.67969 5.25-0.83984 4.6172-0.62891 9.2773-0.86328 13.934-0.69922 1.1758 0.082031 1.9844 0.17187 2.5469 0.25-0.55469 0.10547-1.3594 0.22656-2.5273 0.35937-0.70312 0.10547-1.5156 0.20703-2.4219 0.32422-2.7227 0.35547-6.4492 0.83594-11.215 1.75l-0.25781 0.058594-0.003907-0.003906c-8.332 1.5195-16.434 4.1016-24.113 7.6758-5.3867 2.4688-10.277 5.8984-14.438 10.121-4.8672 4.918-8.0273 11.27-9.0078 18.121-0.13672 0.011718-0.26563 0.070312-0.35938 0.17187-0.12109 0.125-0.17187 0.30469-0.14062 0.47656 0.03125 0.15625 0.0625 0.28516 0.097656 0.41406 0.007812 0.046874 0.027344 0.09375 0.050781 0.13281 1.4414 2.6211 2.7422 5.3164 3.8906 8.0781 1.418 3.3555 2.9922 6.8164 4.5117 10.164 2.8516 6.2773 5.7969 12.766 8.0898 19.324 0.039063 0.11719 0.11719 0.21484 0.22266 0.28125 0.76172 0.51953 1.2461 1.3594 1.3125 2.2773 0.18359 1.3398 0.46094 2.668 0.83203 3.9688 0.050781 0.17578 0.1875 0.31641 0.36719 0.36719 12.004 3.7656 24.871 3.7891 36.887 0.0625 7.8086-2.4961 15.23-6.0625 22.055-10.602 3.8555-2.5156 6.7695-4.6094 8.8945-6.125 0.73047-0.52344 1.3789-0.98828 1.9453-1.3867 0.95703-0.67188 1.625-1.1055 2.0859-1.3867-0.33984 0.4375-0.875 1.0195-1.6797 1.8711h0.003906c-3.1289 3.1641-6.5117 6.0703-10.109 8.6875-6.7578 5.0977-14.281 9.0859-22.293 11.812-5.6914 1.8984-11.637 2.9531-17.637 3.1328-5.9883 0.12891-11.965-0.55078-17.77-2.0273-0.21094-0.054688-0.4375 0.023438-0.57031 0.20312-0.12891 0.17578-0.14063 0.41406-0.027344 0.60547 1.5703 2.5664 3.8203 4.6445 6.5 6.0078 2.6797 1.3633 5.6836 1.957 8.6797 1.7148 10.707 0 23.668-5.8945 32.074-9.7109 1.1094-0.50391 2.2578-1.0156 3.4297-1.5352 11.852-5.2695 26.598-11.844 33.215-23.43z"/>
  <path d="m475.81 336.73-0.17578-0.0625c-0.35937-0.125-0.71484-0.25391-1.1562-0.39453-0.53125-0.11328-1.0625-0.24219-1.6016-0.36719-1.0156-0.24219-2.0625-0.48828-3.1562-0.66406-12.402-2.1602-29.75-0.53125-54.535 5.125-3.8008 0.76172-8.0078 1.75-13.227 3.0625h0.003907c-0.046876 0.011718-0.09375 0.035156-0.14063 0.058593l-1.3125 0.80078c-0.4375 0.28125-0.875 0.54297-1.3125 0.80078l-0.4375 0.25391c-0.46484 0.25-0.96094 0.4375-1.4453 0.65625l-0.4375 0.17969h0.003906c-1.2031 0.58203-2.457 1.043-3.7461 1.3828-2.0703 0.63281-4.1797 1.1289-6.3164 1.4844l-0.875 0.16797c-4.5703 0.71484-8.8125 1.0664-12.551 1.3828h-0.22656l-0.76562 0.066406c-0.30469 0.027344-0.60547 0.046876-0.95313 0.085938h-0.003906c-5.5508 1.1016-11.164 1.8516-16.809 2.2422-7.6523 0.75-15.379-0.25781-22.582-2.9453-0.22656-0.066406-0.47266-0.003906-0.64062 0.16406-0.92188 0.875-1.8867 1.8281-2.8789 2.6758-0.082031 0.074219-0.14062 0.16797-0.17188 0.27344-0.21875 0.72656-0.76172 1.3164-1.4727 1.5898-0.26172 0.17578-0.50781 0.35547-0.75 0.52344l-0.46094 0.32812 0.003907 0.003907c-0.15625 0.10547-0.24609 0.28516-0.23828 0.47266 0.011719 0.1875 0.11719 0.35938 0.28125 0.44922 4.7344 2.625 10.078 3.957 15.492 3.8555 6.582-0.26172 13.113-1.3164 19.441-3.1406 0 0.078124 0.0625 0.15625 0.078125 0.23437 0.042969 1.0156 0.47266 1.9805 1.1992 2.6914l6.0039 10.656c0.46875 1.3398 1.1211 2.6094 1.9375 3.7734-6.0078 7.0391-14.148 11.926-23.188 13.918-8.9141 1.1953-17.688 3.2773-26.188 6.2188-3.2891 1.3984-2.668 4.9453-0.46875 6.7852-7.5898 12.129-10.16 30.188-12.359 43.75-1.1367 7.5234-1.875 15.098-2.2188 22.699-0.46094 8.2383 2.8281 18.277 1.8867 26.109-0.33203 2.793 4.043 2.7695 4.375 0 0.67188-5.6211-1.8945-11.203-2.2148-16.871-0.17188-8.375 0.38281-16.75 1.6602-25.027 1.75-14.258 5.1406-37.434 13.48-49.836h-0.003906c0.09375-0.015625 0.1875-0.035156 0.27734-0.058594 10.938-4.6562 23-3.7109 33.867-8.6172 7.6484-3.5898 14.328-8.9609 19.469-15.668 0.14453-0.050781 0.27734-0.050781 0.4375-0.11719 2.3125-1.0312 3.7383-3.3945 3.5742-5.9219-0.41406-2.5039-1.6797-4.7891-3.582-6.4648-1.4336-1.6133-2.8828-3.0625-4.2266-4.6055v-0.089844c-0.67578-2.0898-2.0195-3.9023-3.8203-5.1562-0.042968-0.035156-0.09375-0.039062-0.13672-0.074219-0.16016-0.19141-0.33984-0.36719-0.53125-0.52734 2.918-0.66406 5.875-1.1641 8.8516-1.4961 6.7773-0.69141 13.785-0.99219 20.562-1.2812 13.812-0.058594 27.57-1.7266 40.996-4.9688 2.8164-0.78906 5.6289-1.6016 8.4492-2.4141 8.793-2.5391 17.891-5.1562 26.953-7.1133v-0.003906c0.23828-0.050781 0.41406-0.25391 0.42969-0.5 0.015625-0.24219-0.13281-0.46484-0.36328-0.54688z"/>
  <path d="m258.67 380.53c-2.8906-0.27344-5.7109-1.0781-8.3125-2.3711-0.1875-0.097656-0.41797-0.074218-0.58203 0.058594-0.16797 0.12891-0.24609 0.34375-0.19531 0.55078 1.2578 5.5625 0.63281 11.383-1.7773 16.551-0.082032 0.17188-0.070313 0.37109 0.03125 0.52734 0.10156 0.16016 0.27344 0.25781 0.46094 0.25781 0.082031-0.003907 0.16016-0.019531 0.23438-0.054688 2.1914-0.92578 4.2578-2.1328 6.1445-3.582 1.5586-1.2773 2.7227-2.9727 3.3516-4.8867 0.67578-2.0977 1.0508-4.2773 1.1172-6.4766 0.015625-0.28516-0.19141-0.53516-0.47266-0.57422z"/>
  <path d="m605.11 268.41c0.24609-0.058594 0.42188-0.28125 0.41797-0.53516-0.066407-11.086-7.1875-19.812-19.539-23.949-17.488-6.3047-35.641-10.586-54.102-12.75-3.2695-0.3125-6.7031-0.40625-10.027-0.5-5.4766 0.019531-10.941-0.45703-16.328-1.4219-2.8594-0.62891-5.6875-1.3633-8.1719-2.0156-0.15234-0.03125-0.30859-0.003906-0.4375 0.082031-0.13281 0.089844-0.21875 0.23828-0.23438 0.39844l-0.050782 0.67188c-0.035156 0.4375-0.066406 0.84375-0.11328 1.25l-0.26953 1.3125c-0.11719 0.58203-0.23438 1.1797-0.375 1.8281l-0.003906 0.003906c-0.32812 1.7344-0.83594 3.4297-1.5078 5.0625-0.21875 0.59375-0.4375 1.2031-0.62891 1.75l-0.52734 1.0312c-1.0586 2.2773-2.3242 4.4492-3.7812 6.4961-4.2109 5.793-9.3164 10.879-15.129 15.062-7.2656 5.2422-14.805 10.098-22.582 14.547l-0.4375 0.25781c-0.81641 0.50391-1.6523 1.0078-2.4922 1.5195h-0.003906c-3.7383 2.1445-7.3242 4.543-10.73 7.1797-4.5234 3.6719-8.6445 7.8203-12.289 12.367-0.875 1.0195-1.75 2.0625-2.625 3.1289-3.2617 4.043-6.7539 7.8906-10.465 11.523l-0.54688 0.54297c-1.0625 1.0898-2.2305 2.082-3.4766 2.9531l-1.1172 0.81641c-0.21484 0.16016-0.28516 0.44531-0.16797 0.68359 0.11719 0.23438 0.38672 0.35547 0.64062 0.28516 0.26953-0.074219 0.54297-0.15625 0.8125-0.24219 0.26953-0.082032 0.51172-0.15625 0.75391-0.22266 5.3203-1.2148 10.715-2.0703 16.152-2.5625 5.6641-0.42188 11.27-1.4219 16.73-2.9844 0.40234-0.14453 0.79688-0.26953 1.1953-0.39844 0.81641-0.23438 1.6172-0.53516 2.3828-0.90625l3.5-1.582c1.9414-0.93359 3.8672-1.8672 5.7812-2.8047l1.1055-0.53906c3.043-1.4766 6.1641-2.7891 9.3477-3.9375 1.4961-0.5625 2.957-1.1172 4.3164-1.6719h0.003907c13.348-5.4258 26.215-11.965 38.465-19.551 2.2383-1.3125 4.4336-2.5898 6.5898-3.8359 6.5625-3.8711 12.785-7.3633 18.426-10.375 2.7109-1.3789 5.25-2.8828 7.6719-4.3398 2.8516-1.7031 5.5469-3.3125 8.3984-4.6602h0.003906c2.582-1.2695 5.4336-1.9062 8.3125-1.8477 2.6484 0.11719 5.2305 0.83984 7.5586 2.1094 2.5273 1.3203 4.918 2.8867 7.1328 4.6836 1.2305 0.97656 2.5156 1.8906 3.8398 2.7383 3.0469 1.7617 6.5586 2.5391 10.062 2.2266 1.1562 0 2.2656-0.03125 3.3281-0.050781 1.8867-0.035156 3.6602-0.074219 5.25-0.035156 3.0234-0.16016 6.0508 0.16797 8.9648 0.96484-2.9492-0.52734-5.9609-0.64062-8.9453-0.33203-1.6055 0.074219-3.3672 0.17578-5.2852 0.28516l-3.5938 0.19531c-1.6367 0.10156-3.2852 0.058594-4.9141-0.12891-1.9648-0.25-3.8516-0.91406-5.5391-1.9492-1.4766-0.87891-2.9062-1.8359-4.2852-2.8633-2.1133-1.6211-4.3828-3.0273-6.7734-4.1992-2.1328-1.0938-4.4805-1.7031-6.875-1.7852-2.5938-0.011719-5.1484 0.62109-7.4375 1.8398-2.5547 1.2461-5.1523 2.8477-7.9023 4.543-2.5156 1.5469-5.1133 3.1484-7.9219 4.6289-5.582 3.0625-11.551 6.5234-18.242 10.539l-3.0625 1.8359c-5.5938 3.3672-11.375 6.8555-17.672 10.355-7.8945 4.5-16.102 8.4336-24.555 11.766-1.5234 0.63281-3.0195 1.2109-4.5 1.7852-3.0391 1.1172-6.0195 2.3906-8.9258 3.8164-2.1875 1.0469-4.4141 2.1484-6.6484 3.2539l-0.22266 0.10938c-1.1953 0.55078-2.3945 1.1055-3.6367 1.6719-0.82812 0.375-1.6758 0.69141-2.5469 0.94922-0.4375 0.14062-0.875 0.28125-1.2734 0.4375-5.8164 1.6836-11.789 2.7734-17.828 3.2539-5.1016 0.46094-10.164 1.2773-15.156 2.4414-9.6641 3.0312-19.113 6.7109-28.285 11.012-1.8711 0.82422-3.7617 1.6523-5.6641 2.4844-6.1055 2.6875-12.402 4.9062-18.844 6.6367-2.2812 0.55859-4.5547 0.94531-6.9648 1.3516-1.0938 0.18359-2.1875 0.37109-3.2383 0.57031-1.3633 0.085937-2.8203 0.17188-4.2695 0.25781-1.832 0.10547-3.6562 0.21094-5.25 0.32422-0.16016 0.011719-0.30859 0.09375-0.40625 0.22266l-0.21875 0.30469c-0.47266 0.65234-0.96094 1.3125-1.5078 1.9414-0.15625 0.1875-0.31641 0.35938-0.47266 0.53125s-0.32812 0.36328-0.49609 0.55469c-0.11719 0.14062-0.15625 0.32812-0.10938 0.5 0.046875 0.17578 0.17578 0.3125 0.34766 0.37109 4.7852 1.5703 9.8008 2.3242 14.836 2.2305 1.4883 0 3.0312-0.046875 4.6328-0.15234 7.4414-0.55469 14.832-1.6602 22.109-3.3164 6.5625-1.4219 12.762-2.9844 18.766-4.4922 2.7734-0.69922 5.4961-1.3867 8.1641-2.0352 0.0625-0.015625 0.125-0.042968 0.17969-0.078125 1.1289-0.77734 2.2773-1.5742 3.4414-2.3984 2.2578-1.582 4.5938-3.2305 7.082-4.8125 6.2383-3.5312 12.738-6.7695 18.266-9.4531l1.6797-0.75391c2.8945-1.3594 5.8633-2.5508 8.8906-3.5703 1.8594-0.69922 3.7578-1.2852 5.6875-1.75l1.75-0.47656c1.375-0.375 2.7734-0.76172 4.1719-1.125 8.125-1.8555 16.801-3.4648 25.812-4.8125 2.332-0.375 4.6953-0.73828 7.082-1.0977 6.9727-1.0664 14.191-2.1875 21.59-3.7617 8.9258-1.9844 18.242-4.4922 28.109-7.1523l3.1289-0.83984h0.003906c11.434-3 22.68-6.6602 33.688-10.965 4.8477-2.0938 9.5742-4.4648 14.148-7.1055 5.4219-3.1172 11.031-5.8945 16.801-8.3125 0.18359-0.070312 0.3125-0.23828 0.33984-0.4375 0.085937-0.71875 0.14844-1.4102 0.17969-2.0938-0.007812-0.23828-0.17187-0.44531-0.40234-0.50781z"/>
  <path d="m232.84 372.1c-0.0625 0-0.12109-0.011718-0.17578-0.023437-0.1875-0.054687-0.38672-0.042969-0.56641 0.023437l-0.49609 0.24609c-1.4102 0.59375-2.9023 1.1758-4.4258 1.7734-6.8047 2.0625-13.055 5.6328-18.297 10.441-1.1719 1.1016-1.582 2.7891-1.043 4.3047 1.3125 3.6133 7.875 6.4922 13.156 8.1797-10.145 11.219-27.102 16.828-33.387 31.395v0.003906c-1.918 5.4492-2.6641 11.246-2.1875 17.004 0.75391 7.0156 0.44141 14.105-0.92188 21.027-1.4922 5.4453-4.3008 9.9922-5.543 15.578-0.60938 2.7422 3.6055 3.9102 4.2188 1.1602 1.6172-7.2539 5.6367-13.766 6.7305-21.113 1.0938-7.3516-1.1523-14.824-0.17578-22.09 2.8711-21.328 22.406-26.082 34.863-40.418h-0.003906c0.33594-0.38281 0.52344-0.875 0.52734-1.3867 0.94141 0.22266 1.75 0.37891 2.2578 0.4375 0.75391 0.10938 1.5156 0.16016 2.2773 0.16016 3.2656 0.058593 6.4453-1.0391 8.9805-3.0977 2.6328-2.2344 4.1602-5.5039 4.1797-8.957 0.22656-6.832-2.7852-14.324-9.9688-14.648z"/>
  <path d="m184.69 379.27c0.15234-0.10938 0.29688-0.23047 0.4375-0.35547 4.332 2 9.1172 2.8047 13.867 2.3359h1.6641c0.15625 0.003906 0.30859 0.019531 0.46094 0.046875h0.09375c0.1875 0.011719 0.37109-0.078125 0.47656-0.23438 4.375-7 15.242-11.184 23.188-14.23 1.75-0.67188 3.3906-1.3125 4.8125-1.9062v-0.003906c0.52344-0.22656 1.0938-0.33203 1.6641-0.30469 0.054688 0.003906 0.11328 0.003906 0.16797 0 0.35938-0.10547 0.73438-0.16016 1.1094-0.16797 0.066406 0 0.11328 0.039062 0.19141 0 1.7617 0.070312 3.5039 0.38672 5.1758 0.9375 0.1875 0.070312 0.39844 0.023437 0.54297-0.11328 0.14453-0.13672 0.20313-0.33594 0.16016-0.53125-1.8047-6.7148-4.25-13.242-7.2969-19.492-1.6719-3.7305-3.4023-7.5898-4.8359-11.469l-0.41406-1.1094c-2.543-6.8398-7.2773-19.574-14.559-24.012-0.21875-0.13281-0.49609-0.097656-0.67578 0.082032-0.17578 0.17969-0.20703 0.46094-0.074219 0.67578 4.4102 7.4414 7.4219 15.629 8.8828 24.152 0.09375 0.52344 0.085938 1.0586-0.027343 1.5781-0.011719 0.0625-0.011719 0.12891 0 0.19141 0.19531 0.89062 0.03125 1.8242-0.46094 2.5938-0.49219 0.76953-1.2734 1.3086-2.1641 1.5039-2.3359 0.61328-4.8633 1.4219-7.5508 2.2812-9.3359 2.9883-19.922 6.3828-28.574 3.6094-0.16406-0.050781-0.34375-0.023437-0.48438 0.078125s-0.22656 0.26172-0.22656 0.4375v0.11719c-0.21094 1.2383-0.46875 2.5781-0.73438 3.9727-0.55469 2.8711-1.1797 6.125-1.5234 9.3398-0.03125 0.28516 0.16016 0.54297 0.4375 0.59766 0.84375 0.1875 1.5703 0.71875 2.0039 1.4688 0.60156 0.95312 0.80078 2.1055 0.55469 3.2031-0.10937 0.28516-0.25781 0.55078-0.4375 0.79688 0.24219-1.2461-0.074218-2.5352-0.86719-3.5273s-1.9805-1.5859-3.25-1.625c-2.1523-0.38281-4.1641-1.332-5.832-2.7461-2.1289-1.4805-4.4961-2.5859-7-3.2695-5.4805-1.2773-7.8164 7.1562-2.3281 8.4375v0.003906c2.4922 0.84375 4.832 2.082 6.9297 3.668 2.4688 1.5938 5.3086 2.5078 8.2422 2.6562 0.63672 0.035156 1.2695-0.074219 1.8555-0.31641 0.22656 1.2656 0.58984 2.5039 1.0859 3.6914-5.043 2.6289-8.7852 7.2148-10.344 12.688-0.57031 2.3242 0.77344 4.6875 3.0625 5.3828 2.332 0.61719 4.7266-0.74609 5.3828-3.0625 0.73047-3.9336 4.0859-6.0273 7.2109-8.0508z"/>
  <path d="m217.23 230.87c0.36328 0.10547 0.75 0.10547 1.1133 0 0.39453 1.0234 1.2031 1.8359 2.2227 2.2344 1.0234 0.39844 2.1641 0.35156 3.1484-0.13281 10.527-3.8789 21.281-7.1211 32.195-9.7109 6.7891-1.8594 25.676-10.586 29.672-2.3438v-0.003906c0.12891 0.24609 0.27734 0.48047 0.4375 0.70703 0.082031 0.71484 0.15234 1.4258 0.22266 2.1602 0.082031 0.875 0.16797 1.7891 0.28125 2.668 0 0.20313 0.023438 0.39453 0.035157 0.59375-0.20703 1.1602-0.40234 2.3281-0.55859 3.5273h-0.003906c-0.19922 4.6328-0.71484 9.25-1.5508 13.812-0.16016 0.58984-0.14062 1.2148 0.054688 1.793-2.5742 4.3945-3.793 9.457-3.5 14.543 0.007812 0.15625 0.078125 0.30469 0.20312 0.40234 0.097656 0.078124 0.21875 0.12109 0.34375 0.12109h0.082031c3.6055-0.5625 6.9531-0.99609 9.9453-1.2852 0.19141-0.019531 0.35938-0.13672 0.4375-0.30859 3.6484-8.2305 8.457-15.891 14.285-22.75 0.24609-0.28906 0.49609-0.57812 0.73828-0.875 0.47266-0.55859 0.94531-1.125 1.4141-1.6289l2.4766-2.3008c1.0117-0.98438 2.0977-1.8906 3.25-2.7031 0.61719-0.46484 1.2344-0.92578 1.793-1.3867 3.2969-2.3359 6.6328-4.4336 9.8594-6.4609l0.58203-0.36328 0.003906-0.003906c12.605-8.1367 23.75-18.34 32.961-30.188 1.7891-2.1406 3.5352-4.2656 5.25-6.3711 2.625-3.2227 5.1367-6.2656 7.6953-9.2461 1.207-1.3867 2.4492-2.7383 3.6836-4.0781 0.94922-1.0312 1.8906-2.0547 2.8008-3.0625 1.3125-1.3633 2.6641-2.6758 3.9844-3.9375 0.875-0.84766 1.75-1.6875 2.5977-2.5234 8.0898-7.5 16.188-13.949 23.32-19.645l2.043-1.6289c7.3789-5.793 14.465-11.617 21.051-17.309l2.6992-2.3203c2.1484-1.8438 4.207-3.6172 6.1875-5.3008 2.8672-2.3164 5.5586-4.5117 8.0781-6.5898 3.9609-3.2305 7.7344-5.9688 11.062-8.3906 0.91406-0.66797 1.8086-1.3125 2.625-1.9297 3.8672-2.5312 7.1758-4.6797 9.9766-6.5l0.61719-0.40234 0.035156-0.027344v0.007813c0.21484-0.16016 0.44141-0.30469 0.67578-0.4375l0.4375-0.26562c0.23047-0.15625 0.3125-0.45312 0.19141-0.69922-0.12891-0.24219-0.41016-0.35938-0.67187-0.27734-7.2305 2.4727-14.211 5.6211-20.848 9.4102-23.914 14.172-44.457 33.074-64.312 51.359-4.1406 3.8047-8.3477 7.6641-12.605 11.512l0.003907-0.003906c0.003906-0.058594 0.003906-0.12109 0-0.18359-3.1758-18.602 13.941-43.273 22.969-59.367 6.3789-11.375 12.25-26.297 20.723-35.805 1.8672-2.0898-1.2109-5.1992-3.0938-3.0938-12.199 13.656-19.879 33.285-28.297 49.488-7.7578 14.938-19.504 32.457-16.52 49.941 0.09375 0.77344 0.68359 1.3945 1.4531 1.5195-0.57812 0.51562-1.1641 1.0195-1.75 1.5352-0.25391-0.3125-0.59375-0.55078-0.97656-0.67578-5.3242-1.4766-11.027-0.60547-15.672 2.3906-7.1914 2.9805-13.82 7.1641-19.602 12.375-8.3633 8.2852-13.203 19.484-13.512 31.254-3.5 3.3516-6.8633 6.5117-10.137 9.5039-2.9766 2.6719-6.2383 5.1914-9.3984 7.6328-2.6758 2.0664-5.3125 4.1055-7.7695 6.2109 0.37109-4.3633 0.23437-8.7578-0.40625-13.09 0.058593-0.50391 0.074218-1.0312 0.11328-1.543 0.71484-1.3945 0.71484-3.0469 0-4.4414-4.5156-9.3477-10.574-10.297-20.199-7.8398-17.918 3.918-35.551 9.0469-52.777 15.352-1.3867 0.54297-2.4648 1.6758-2.9414 3.0898-31.703-9.4492-72.625-14.258-93.441-42.18-1.6641-2.2305-5.4609-0.050782-3.7773 2.2109 22.25 29.855 62.594 34.172 96.289 44.254zm150.57-61.312c-3.3555 2.9453-6.7383 5.8633-10.164 8.6914-9.7812 8.0625-18.926 16.949-27.773 25.543l-3.875 3.7578c0.050781-2.0898 0.34375-4.1641 0.875-6.1836 0.57031-1.8398 1.3633-3.6016 2.3633-5.25l0.050781-0.023437c0.28906-0.17578 0.50781-0.41016 0.78125-0.59766h0.003907c0.52344 0.023437 1.0352-0.14453 1.4492-0.46875 3.7539-2.9609 7.2578-6.2305 10.469-9.7773 4.8125-4.5078 9.9922-9.2891 15.281-13.867 0.0625-0.050781 0.070313-0.13672 0.10547-0.20703 3.2773-1.4375 6.875-1.9961 10.434-1.6172z"/>
  <use x="70" y="625.625" xlink:href="#u"/>
  <use x="86.054688" y="625.625" xlink:href="#d"/>
  <use x="96.839844" y="625.625" xlink:href="#a"/>
  <use x="111.679687" y="625.625" xlink:href="#g"/>
  <use x="126.4375" y="625.625" xlink:href="#b"/>
  <use x="136.894531" y="625.625" xlink:href="#a"/>
  <use x="151.730469" y="625.625" xlink:href="#i"/>
  <use x="175.007812" y="625.625" xlink:href="#c"/>
  <use x="190.664062" y="625.625" xlink:href="#f"/>
  <use x="212.539062" y="625.625" xlink:href="#h"/>
  <use x="230.847656" y="625.625" xlink:href="#a"/>
  <use x="245.683594" y="625.625" xlink:href="#f"/>
  <use x="267.558594" y="625.625" xlink:href="#t"/>
  <use x="284.402344" y="625.625" xlink:href="#g"/>
  <use x="299.164062" y="625.625" xlink:href="#c"/>
  <use x="314.824219" y="625.625" xlink:href="#c"/>
  <use x="330.480469" y="625.625" xlink:href="#s"/>
  <use x="337.980469" y="625.625" xlink:href="#b"/>
  <use x="70" y="647.5" xlink:href="#r"/>
  <use x="79.515625" y="647.5" xlink:href="#d"/>
  <use x="90.304688" y="647.5" xlink:href="#e"/>
  <use x="105.332031" y="647.5" xlink:href="#q"/>
  <use x="135.742188" y="647.5" xlink:href="#b"/>
  <use x="146.199219" y="647.5" xlink:href="#p"/>
  <use x="161.773438" y="647.5" xlink:href="#a"/>
  <use x="184.222656" y="647.5" xlink:href="#o"/>
  <use x="202.53125" y="647.5" xlink:href="#e"/>
  <use x="217.558594" y="647.5" xlink:href="#n"/>
  <use x="233.132812" y="647.5" xlink:href="#m"/>
  <use x="256.320312" y="647.5" xlink:href="#l"/>
  <use x="272.355469" y="647.5" xlink:href="#d"/>
  <use x="283.140625" y="647.5" xlink:href="#e"/>
  <use x="298.171875" y="647.5" xlink:href="#k"/>
  <use x="305.667969" y="647.5" xlink:href="#a"/>
  <use x="320.503906" y="647.5" xlink:href="#j"/>
  <use x="333.472656" y="647.5" xlink:href="#b"/>
 </g>
</svg>
